<svg width="98" height="40" viewBox="0 0 98 40" fill="none" xmlns="http://www.w3.org/2000/svg">
<g filter="url(#filter0_dd)">
<rect x="4.5" y="0.5" width="89" height="31" rx="15.5" stroke="#6C5CE7"/>
<path d="M25.6625 21H29.5787C31.5091 21 32.617 19.9688 32.617 18.5582C32.617 17.2969 31.7008 16.5043 30.644 16.4574V16.3722C31.6028 16.1719 32.2761 15.4773 32.2761 14.4801C32.2761 13.1634 31.2619 12.2727 29.3017 12.2727H25.6625V21ZM27.7718 19.2997V17.2202H29.1142C29.9196 17.2202 30.4139 17.6463 30.4139 18.3153C30.4139 18.9332 29.9877 19.2997 29.0758 19.2997H27.7718ZM27.7718 15.8608V13.9474H28.9735C29.6767 13.9474 30.1241 14.3097 30.1241 14.8892C30.1241 15.5028 29.6298 15.8608 28.9395 15.8608H27.7718ZM36.1312 21H42.2164V19.2869H38.2406V17.4929H41.9054V15.7756H38.2406V13.9858H42.2164V12.2727H36.1312V21ZM50.7548 14.8892H52.7747C52.7576 13.2571 51.4579 12.1534 49.4295 12.1534C47.4352 12.1534 45.9991 13.2401 46.0119 14.8636C46.0076 16.1889 46.9366 16.9347 48.4451 17.2798L49.3571 17.4929C50.3159 17.7145 50.7463 17.9744 50.7548 18.4645C50.7463 18.9972 50.2477 19.3679 49.3997 19.3679C48.4664 19.3679 47.8528 18.9332 47.8059 18.0938H45.786C45.8116 20.1349 47.2306 21.1108 49.4252 21.1108C51.5985 21.1108 52.8855 20.1264 52.894 18.4688C52.8855 17.0753 51.9437 16.223 50.2221 15.8438L49.4721 15.6733C48.6795 15.5028 48.1767 15.2386 48.1937 14.7188C48.198 14.2415 48.6071 13.8963 49.4252 13.8963C50.2477 13.8963 50.6994 14.267 50.7548 14.8892ZM56.1738 13.9858H58.8244V21H60.9039V13.9858H63.5502V12.2727H56.1738V13.9858ZM69.5307 12.2727H67.3873L67.5833 18.3281H69.3347L69.5307 12.2727ZM68.4611 21.1236C69.0449 21.1236 69.5605 20.6293 69.5691 20.0156C69.5605 19.4105 69.0449 18.9205 68.4611 18.9205C67.8475 18.9205 67.3446 19.4105 67.3532 20.0156C67.3446 20.6293 67.8475 21.1236 68.4611 21.1236Z" fill="#2D3436"/>
</g>
<defs>
<filter id="filter0_dd" x="0" y="0" width="98" height="40" filterUnits="userSpaceOnUse" color-interpolation-filters="sRGB">
<feFlood flood-opacity="0" result="BackgroundImageFix"/>
<feColorMatrix in="SourceAlpha" type="matrix" values="0 0 0 0 0 0 0 0 0 0 0 0 0 0 0 0 0 0 127 0"/>
<feOffset dy="4"/>
<feGaussianBlur stdDeviation="2"/>
<feColorMatrix type="matrix" values="0 0 0 0 0 0 0 0 0 0 0 0 0 0 0 0 0 0 0.25 0"/>
<feBlend mode="normal" in2="BackgroundImageFix" result="effect1_dropShadow"/>
<feColorMatrix in="SourceAlpha" type="matrix" values="0 0 0 0 0 0 0 0 0 0 0 0 0 0 0 0 0 0 127 0"/>
<feOffset dy="4"/>
<feGaussianBlur stdDeviation="2"/>
<feColorMatrix type="matrix" values="0 0 0 0 0 0 0 0 0 0 0 0 0 0 0 0 0 0 0.25 0"/>
<feBlend mode="normal" in2="effect1_dropShadow" result="effect2_dropShadow"/>
<feBlend mode="normal" in="SourceGraphic" in2="effect2_dropShadow" result="shape"/>
</filter>
</defs>
</svg>
